<svg xmlns="http://www.w3.org/2000/svg" viewBox="0 0 128 128" width="128" height="128"><rect x="8" y="8" width="112" height="112" rx="26" fill="#4F7CFF" opacity="0.14"/><rect x="8" y="8" width="112" height="112" rx="26" fill="none" stroke="#4F7CFF" stroke-width="2" opacity="0.3"/><g transform="translate(0,0)" fill="none" stroke="#4F7CFF" stroke-width="6" stroke-linejoin="round" stroke-linecap="round"><path d="M40 62h8v22h-8z M52 84c0 3 2 5 5 5h20c4 0 7-2 8-6l4-16c1-4-2-8-6-8H70l3-13c1-5-2-9-7-9-3 0-5 2-6 5l-8 20v22z" fill="#4F7CFF"/></g></svg>